{
	"asset":{
		"generator":"Khronos glTF Blender I/O v4.1.63",
		"version":"2.0"
	},
	"scene":0,
	"scenes":[
		{
			"name":"Scene",
			"nodes":[
				0
			]
		}
	],
	"nodes":[
		{
			"mesh":0,
			"name":"CityFolk_Large_Mesh.003",
			"rotation":[
				-0.0006100747850723565,
				-0.6503804326057434,
				-0.005943551659584045,
				0.7595851421356201
			],
			"scale":[
				8.953472137451172,
				6.932363033294678,
				6.988606929779053
			],
			"translation":[
				-41.970069885253906,
				-8.62909984588623,
				39.59568786621094
			]
		}
	],
	"materials":[
		{
			"name":"CityFolk_Orange_Mat.004",
			"normalTexture":{
				"index":0
			},
			"pbrMetallicRoughness":{
				"baseColorTexture":{
					"index":1
				},
				"metallicRoughnessTexture":{
					"index":2
				}
			}
		}
	],
	"meshes":[
		{
			"name":"CityFolk_Large_Mesh.004",
			"primitives":[
				{
					"attributes":{
						"POSITION":0,
						"NORMAL":1,
						"TEXCOORD_0":2,
						"TEXCOORD_1":3
					},
					"indices":4,
					"material":0
				}
			]
		}
	],
	"textures":[
		{
			"sampler":0,
			"source":0
		},
		{
			"sampler":0,
			"source":1
		},
		{
			"sampler":0,
			"source":2
		}
	],
	"images":[
		{
			"mimeType":"image/png",
			"name":"CityFolk_Orange_Mat_Normal",
			"uri":"CityFolk_Orange_Mat_Normal.png"
		},
		{
			"mimeType":"image/png",
			"name":"CityFolk_Orange_Mat_BaseColor",
			"uri":"CityFolk_Orange_Mat_BaseColor.png"
		},
		{
			"mimeType":"image/png",
			"name":"CityFolk_Orange_Mat_MetallicRoughness",
			"uri":"CityFolk_Orange_Mat_MetallicRoughness.png"
		}
	],
	"accessors":[
		{
			"bufferView":0,
			"componentType":5126,
			"count":802,
			"max":[
				0.7572672963142395,
				2.13664174079895,
				0.5759311318397522
			],
			"min":[
				-0.7572672963142395,
				-0.005186533089727163,
				-0.36592280864715576
			],
			"type":"VEC3"
		},
		{
			"bufferView":1,
			"componentType":5126,
			"count":802,
			"type":"VEC3"
		},
		{
			"bufferView":2,
			"componentType":5126,
			"count":802,
			"type":"VEC2"
		},
		{
			"bufferView":3,
			"componentType":5126,
			"count":802,
			"type":"VEC2"
		},
		{
			"bufferView":4,
			"componentType":5123,
			"count":3663,
			"type":"SCALAR"
		}
	],
	"bufferViews":[
		{
			"buffer":0,
			"byteLength":9624,
			"byteOffset":0,
			"target":34962
		},
		{
			"buffer":0,
			"byteLength":9624,
			"byteOffset":9624,
			"target":34962
		},
		{
			"buffer":0,
			"byteLength":6416,
			"byteOffset":19248,
			"target":34962
		},
		{
			"buffer":0,
			"byteLength":6416,
			"byteOffset":25664,
			"target":34962
		},
		{
			"buffer":0,
			"byteLength":7326,
			"byteOffset":32080,
			"target":34963
		}
	],
	"samplers":[
		{
			"magFilter":9729,
			"minFilter":9987
		}
	],
	"buffers":[
		{
			"byteLength":39408,
			"uri":"cobaorangshadow.bin"
		}
	]
}
